<svg width="80" height="80" viewBox="0 0 80 80" fill="none" xmlns="http://www.w3.org/2000/svg">
<rect width="80" height="80" rx="12" fill="#007B47" fill-opacity="0.1"/>
<path d="M56.1854 34.0816C47.412 25.3113 32.587 25.3113 23.8136 34.0816C20.6886 37.2066 20.3886 41.8145 23.0808 45.2863C23.3148 45.5864 23.6142 45.829 23.9562 45.9958C24.2981 46.1626 24.6737 46.2492 25.0542 46.2488C25.3616 46.249 25.6663 46.1918 25.9526 46.0801L33.6089 43.366L33.6542 43.3488C34.0406 43.1943 34.3823 42.9457 34.6484 42.6256C34.9144 42.3056 35.0963 41.9242 35.1776 41.516L36.0995 36.9035C38.6131 36.0346 41.3446 36.0286 43.862 36.8863L44.8323 41.5348C44.9165 41.9385 45.0992 42.3151 45.3642 42.631C45.6292 42.947 45.9682 43.1925 46.3511 43.3457L46.3964 43.3629L54.0526 46.0801C54.5528 46.2738 55.102 46.3015 55.6192 46.1592C56.1363 46.0168 56.594 45.7119 56.9245 45.2895C59.6104 41.8145 59.3089 37.2066 56.1854 34.0816ZM54.9479 43.7488L54.9011 43.7301L47.2729 41.0223L46.3026 36.3754C46.2146 35.9549 46.0196 35.5642 45.7367 35.241C45.4537 34.9178 45.0922 34.6729 44.687 34.5301C41.6302 33.4835 38.3111 33.4907 35.2589 34.5504C34.8506 34.6963 34.4872 34.9458 34.2045 35.2745C33.9218 35.6033 33.7295 35.9999 33.6464 36.4254L32.7245 41.0363L25.0979 43.727C25.0823 43.727 25.0714 43.7473 25.0558 43.7535C23.1292 41.2676 23.337 38.0926 25.5808 35.8504C29.487 31.9441 34.7448 29.9863 39.9995 29.9863C45.2542 29.9863 50.5104 31.941 54.4182 35.8504C56.6573 38.0926 56.8745 41.2676 54.9479 43.7488ZM54.9979 51.2488C54.9979 51.5803 54.8662 51.8983 54.6318 52.1327C54.3974 52.3671 54.0795 52.4988 53.7479 52.4988H26.2495C25.918 52.4988 25.6 52.3671 25.3656 52.1327C25.1312 51.8983 24.9995 51.5803 24.9995 51.2488C24.9995 50.9173 25.1312 50.5994 25.3656 50.3649C25.6 50.1305 25.918 49.9988 26.2495 49.9988H53.7495C54.081 49.9988 54.399 50.1305 54.6334 50.3649C54.8678 50.5994 54.9995 50.9173 54.9995 51.2488H54.9979Z" fill="#007B47"/>
</svg>
