<svg width="80" height="80" viewBox="0 0 80 80" fill="none" xmlns="http://www.w3.org/2000/svg">
<rect width="80" height="80" rx="12" fill="#007B47" fill-opacity="0.1"/>
<path d="M51.5453 28.5406C50.05 27.0303 48.2715 25.8297 46.3115 25.0077C44.3516 24.1856 42.2488 23.7582 40.1234 23.75H40C35.6902 23.75 31.557 25.462 28.5095 28.5095C25.462 31.557 23.75 35.6902 23.75 40V48.75C23.75 49.7446 24.1451 50.6984 24.8483 51.4017C25.5516 52.1049 26.5054 52.5 27.5 52.5H30C30.9946 52.5 31.9484 52.1049 32.6517 51.4017C33.3549 50.6984 33.75 49.7446 33.75 48.75V42.5C33.75 41.5054 33.3549 40.5516 32.6517 39.8483C31.9484 39.1451 30.9946 38.75 30 38.75H26.3063C26.5473 36.1436 27.5263 33.66 29.1285 31.5902C30.7306 29.5203 32.8896 27.95 35.3523 27.0634C37.8151 26.1767 40.4795 26.0104 43.0334 26.5839C45.5873 27.1574 47.9247 28.447 49.7719 30.3016C52.0295 32.5708 53.4182 35.561 53.6953 38.75H50C49.0054 38.75 48.0516 39.1451 47.3484 39.8483C46.6451 40.5516 46.25 41.5054 46.25 42.5V48.75C46.25 49.7446 46.6451 50.6984 47.3484 51.4017C48.0516 52.1049 49.0054 52.5 50 52.5H53.75C53.75 53.4946 53.3549 54.4484 52.6517 55.1517C51.9484 55.8549 50.9946 56.25 50 56.25H41.25C40.9185 56.25 40.6005 56.3817 40.3661 56.6161C40.1317 56.8505 40 57.1685 40 57.5C40 57.8315 40.1317 58.1495 40.3661 58.3839C40.6005 58.6183 40.9185 58.75 41.25 58.75H50C51.6576 58.75 53.2473 58.0915 54.4194 56.9194C55.5915 55.7473 56.25 54.1576 56.25 52.5V40C56.2581 37.8743 55.8468 35.768 55.0394 33.8015C54.2321 31.8351 53.0447 30.0474 51.5453 28.5406ZM30 41.25C30.3315 41.25 30.6495 41.3817 30.8839 41.6161C31.1183 41.8505 31.25 42.1685 31.25 42.5V48.75C31.25 49.0815 31.1183 49.3995 30.8839 49.6339C30.6495 49.8683 30.3315 50 30 50H27.5C27.1685 50 26.8505 49.8683 26.6161 49.6339C26.3817 49.3995 26.25 49.0815 26.25 48.75V41.25H30ZM50 50C49.6685 50 49.3505 49.8683 49.1161 49.6339C48.8817 49.3995 48.75 49.0815 48.75 48.75V42.5C48.75 42.1685 48.8817 41.8505 49.1161 41.6161C49.3505 41.3817 49.6685 41.25 50 41.25H53.75V50H50Z" fill="#007B47"/>
</svg>
