<svg width="27" height="28" viewBox="0 0 27 28" fill="none" xmlns="http://www.w3.org/2000/svg">
<path d="M26.9328 14.1884C26.9328 6.78039 20.9628 0.775391 13.5988 0.775391C6.23478 0.775391 0.265778 6.77939 0.265778 14.1884C0.265778 20.8854 5.14078 26.4344 11.5158 27.4404V18.0684H8.12978V14.1884H11.5148V11.2344C11.5148 7.87239 13.5048 6.01439 16.5508 6.01439C18.0088 6.01439 19.5358 6.27739 19.5358 6.27739V9.57839H17.8528C16.1978 9.57839 15.6818 10.6134 15.6818 11.6744V14.1904H19.3798L18.7888 18.0674H15.6818V27.4424C22.0568 26.4364 26.9318 20.8874 26.9318 14.1904L26.9328 14.1884Z" fill="#007B47"/>
</svg>
