<svg width="64" height="64" viewBox="0 0 64 64" fill="none" xmlns="http://www.w3.org/2000/svg">
<path d="M58 30H55.915C55.4351 24.3486 52.972 19.049 48.9615 15.0385C44.951 11.028 39.6514 8.56493 34 8.085V6C34 5.46957 33.7893 4.96086 33.4142 4.58579C33.0391 4.21071 32.5304 4 32 4C31.4696 4 30.9609 4.21071 30.5858 4.58579C30.2107 4.96086 30 5.46957 30 6V8.085C24.3486 8.56493 19.049 11.028 15.0385 15.0385C11.028 19.049 8.56493 24.3486 8.085 30H6C5.46957 30 4.96086 30.2107 4.58579 30.5858C4.21071 30.9609 4 31.4696 4 32C4 32.5304 4.21071 33.0391 4.58579 33.4142C4.96086 33.7893 5.46957 34 6 34H8.085C8.56493 39.6514 11.028 44.951 15.0385 48.9615C19.049 52.972 24.3486 55.4351 30 55.915V58C30 58.5304 30.2107 59.0391 30.5858 59.4142C30.9609 59.7893 31.4696 60 32 60C32.5304 60 33.0391 59.7893 33.4142 59.4142C33.7893 59.0391 34 58.5304 34 58V55.915C39.6514 55.4351 44.951 52.972 48.9615 48.9615C52.972 44.951 55.4351 39.6514 55.915 34H58C58.5304 34 59.0391 33.7893 59.4142 33.4142C59.7893 33.0391 60 32.5304 60 32C60 31.4696 59.7893 30.9609 59.4142 30.5858C59.0391 30.2107 58.5304 30 58 30ZM34 51.9V50C34 49.4696 33.7893 48.9609 33.4142 48.5858C33.0391 48.2107 32.5304 48 32 48C31.4696 48 30.9609 48.2107 30.5858 48.5858C30.2107 48.9609 30 49.4696 30 50V51.9C25.4122 51.4319 21.1263 49.3956 17.8653 46.1347C14.6044 42.8737 12.5681 38.5878 12.1 34H14C14.5304 34 15.0391 33.7893 15.4142 33.4142C15.7893 33.0391 16 32.5304 16 32C16 31.4696 15.7893 30.9609 15.4142 30.5858C15.0391 30.2107 14.5304 30 14 30H12.1C12.5681 25.4122 14.6044 21.1263 17.8653 17.8653C21.1263 14.6044 25.4122 12.5681 30 12.1V14C30 14.5304 30.2107 15.0391 30.5858 15.4142C30.9609 15.7893 31.4696 16 32 16C32.5304 16 33.0391 15.7893 33.4142 15.4142C33.7893 15.0391 34 14.5304 34 14V12.1C38.5878 12.5681 42.8737 14.6044 46.1347 17.8653C49.3956 21.1263 51.4319 25.4122 51.9 30H50C49.4696 30 48.9609 30.2107 48.5858 30.5858C48.2107 30.9609 48 31.4696 48 32C48 32.5304 48.2107 33.0391 48.5858 33.4142C48.9609 33.7893 49.4696 34 50 34H51.9C51.4319 38.5878 49.3956 42.8737 46.1347 46.1347C42.8737 49.3956 38.5878 51.4319 34 51.9ZM32 22C30.0222 22 28.0888 22.5865 26.4443 23.6853C24.7998 24.7841 23.5181 26.3459 22.7612 28.1732C22.0043 30.0004 21.8063 32.0111 22.1921 33.9509C22.578 35.8907 23.5304 37.6725 24.9289 39.0711C26.3275 40.4696 28.1093 41.422 30.0491 41.8079C31.9889 42.1937 33.9996 41.9957 35.8268 41.2388C37.6541 40.4819 39.2159 39.2002 40.3147 37.5557C41.4135 35.9112 42 33.9778 42 32C42 29.3478 40.9464 26.8043 39.0711 24.9289C37.1957 23.0536 34.6522 22 32 22ZM32 38C30.8133 38 29.6533 37.6481 28.6666 36.9888C27.6799 36.3295 26.9108 35.3925 26.4567 34.2961C26.0026 33.1997 25.8838 31.9933 26.1153 30.8295C26.3468 29.6656 26.9182 28.5965 27.7574 27.7574C28.5965 26.9182 29.6656 26.3468 30.8295 26.1153C31.9933 25.8838 33.1997 26.0026 34.2961 26.4567C35.3925 26.9108 36.3295 27.6799 36.9888 28.6666C37.6481 29.6533 38 30.8133 38 32C38 33.5913 37.3679 35.1174 36.2426 36.2426C35.1174 37.3679 33.5913 38 32 38Z" fill="#F8DC58"/>
</svg>
