<svg width="80" height="80" viewBox="0 0 80 80" fill="none" xmlns="http://www.w3.org/2000/svg">
<rect width="80" height="80" rx="12" fill="#007B47" fill-opacity="0.1"/>
<path d="M56.25 55H52.5V25H53.75C54.0815 25 54.3995 24.8683 54.6339 24.6339C54.8683 24.3995 55 24.0815 55 23.75C55 23.4185 54.8683 23.1005 54.6339 22.8661C54.3995 22.6317 54.0815 22.5 53.75 22.5H26.25C25.9185 22.5 25.6005 22.6317 25.3661 22.8661C25.1317 23.1005 25 23.4185 25 23.75C25 24.0815 25.1317 24.3995 25.3661 24.6339C25.6005 24.8683 25.9185 25 26.25 25H27.5V55H23.75C23.4185 55 23.1005 55.1317 22.8661 55.3661C22.6317 55.6005 22.5 55.9185 22.5 56.25C22.5 56.5815 22.6317 56.8995 22.8661 57.1339C23.1005 57.3683 23.4185 57.5 23.75 57.5H56.25C56.5815 57.5 56.8995 57.3683 57.1339 57.1339C57.3683 56.8995 57.5 56.5815 57.5 56.25C57.5 55.9185 57.3683 55.6005 57.1339 55.3661C56.8995 55.1317 56.5815 55 56.25 55ZM30 25H50V55H45V48.75C45 48.4185 44.8683 48.1005 44.6339 47.8661C44.3995 47.6317 44.0815 47.5 43.75 47.5H36.25C35.9185 47.5 35.6005 47.6317 35.3661 47.8661C35.1317 48.1005 35 48.4185 35 48.75V55H30V25ZM42.5 55H37.5V50H42.5V55ZM33.75 30C33.75 29.6685 33.8817 29.3505 34.1161 29.1161C34.3505 28.8817 34.6685 28.75 35 28.75H37.5C37.8315 28.75 38.1495 28.8817 38.3839 29.1161C38.6183 29.3505 38.75 29.6685 38.75 30C38.75 30.3315 38.6183 30.6495 38.3839 30.8839C38.1495 31.1183 37.8315 31.25 37.5 31.25H35C34.6685 31.25 34.3505 31.1183 34.1161 30.8839C33.8817 30.6495 33.75 30.3315 33.75 30ZM41.25 30C41.25 29.6685 41.3817 29.3505 41.6161 29.1161C41.8505 28.8817 42.1685 28.75 42.5 28.75H45C45.3315 28.75 45.6495 28.8817 45.8839 29.1161C46.1183 29.3505 46.25 29.6685 46.25 30C46.25 30.3315 46.1183 30.6495 45.8839 30.8839C45.6495 31.1183 45.3315 31.25 45 31.25H42.5C42.1685 31.25 41.8505 31.1183 41.6161 30.8839C41.3817 30.6495 41.25 30.3315 41.25 30ZM33.75 36.25C33.75 35.9185 33.8817 35.6005 34.1161 35.3661C34.3505 35.1317 34.6685 35 35 35H37.5C37.8315 35 38.1495 35.1317 38.3839 35.3661C38.6183 35.6005 38.75 35.9185 38.75 36.25C38.75 36.5815 38.6183 36.8995 38.3839 37.1339C38.1495 37.3683 37.8315 37.5 37.5 37.5H35C34.6685 37.5 34.3505 37.3683 34.1161 37.1339C33.8817 36.8995 33.75 36.5815 33.75 36.25ZM41.25 36.25C41.25 35.9185 41.3817 35.6005 41.6161 35.3661C41.8505 35.1317 42.1685 35 42.5 35H45C45.3315 35 45.6495 35.1317 45.8839 35.3661C46.1183 35.6005 46.25 35.9185 46.25 36.25C46.25 36.5815 46.1183 36.8995 45.8839 37.1339C45.6495 37.3683 45.3315 37.5 45 37.5H42.5C42.1685 37.5 41.8505 37.3683 41.6161 37.1339C41.3817 36.8995 41.25 36.5815 41.25 36.25ZM33.75 42.5C33.75 42.1685 33.8817 41.8505 34.1161 41.6161C34.3505 41.3817 34.6685 41.25 35 41.25H37.5C37.8315 41.25 38.1495 41.3817 38.3839 41.6161C38.6183 41.8505 38.75 42.1685 38.75 42.5C38.75 42.8315 38.6183 43.1495 38.3839 43.3839C38.1495 43.6183 37.8315 43.75 37.5 43.75H35C34.6685 43.75 34.3505 43.6183 34.1161 43.3839C33.8817 43.1495 33.75 42.8315 33.75 42.5ZM41.25 42.5C41.25 42.1685 41.3817 41.8505 41.6161 41.6161C41.8505 41.3817 42.1685 41.25 42.5 41.25H45C45.3315 41.25 45.6495 41.3817 45.8839 41.6161C46.1183 41.8505 46.25 42.1685 46.25 42.5C46.25 42.8315 46.1183 43.1495 45.8839 43.3839C45.6495 43.6183 45.3315 43.75 45 43.75H42.5C42.1685 43.75 41.8505 43.6183 41.6161 43.3839C41.3817 43.1495 41.25 42.8315 41.25 42.5Z" fill="#007B47"/>
</svg>
