<svg width="27" height="27" viewBox="0 0 27 27" fill="none" xmlns="http://www.w3.org/2000/svg">
<path d="M13.0998 9.90767C12.4663 9.90767 11.8469 10.0955 11.3202 10.4475C10.7934 10.7995 10.3828 11.2998 10.1403 11.8851C9.89789 12.4705 9.83445 13.1146 9.95805 13.7359C10.0817 14.3573 10.3867 14.9281 10.8347 15.3761C11.2827 15.8241 11.8535 16.1292 12.4749 16.2528C13.0963 16.3764 13.7404 16.313 14.3257 16.0705C14.911 15.828 15.4113 15.4175 15.7633 14.8907C16.1153 14.3639 16.3032 13.7446 16.3032 13.111C16.3032 12.6903 16.2203 12.2738 16.0593 11.8851C15.8983 11.4965 15.6624 11.1434 15.3649 10.8459C15.0675 10.5484 14.7143 10.3125 14.3257 10.1515C13.937 9.99053 13.5205 9.90767 13.0998 9.90767ZM25.9261 6.74309C25.9193 5.74561 25.7356 4.75724 25.3836 3.82392C25.1243 3.14096 24.7232 2.52075 24.2066 2.0042C23.6901 1.48765 23.0699 1.08651 22.3869 0.827253C21.4536 0.475227 20.4652 0.291548 19.4678 0.284753C17.8015 0.194336 17.3107 0.194336 13.0998 0.194336C8.889 0.194336 8.39817 0.194336 6.73192 0.284753C5.73444 0.291548 4.74607 0.475227 3.81275 0.827253C3.12979 1.08651 2.50958 1.48765 1.99303 2.0042C1.47648 2.52075 1.07534 3.14096 0.816083 3.82392C0.464057 4.75724 0.280378 5.74561 0.273583 6.74309C0.183166 8.40934 0.183167 8.90017 0.183167 13.111C0.183167 17.3218 0.183166 17.8127 0.273583 19.4789C0.287487 20.4799 0.470917 21.4713 0.816083 22.411C1.07419 23.0908 1.475 23.7075 1.9915 24.2193C2.50583 24.739 3.12738 25.1401 3.81275 25.3948C4.74607 25.7468 5.73444 25.9305 6.73192 25.9373C8.39817 26.0277 8.889 26.0277 13.0998 26.0277C17.3107 26.0277 17.8015 26.0277 19.4678 25.9373C20.4652 25.9305 21.4536 25.7468 22.3869 25.3948C23.0723 25.1401 23.6938 24.739 24.2082 24.2193C24.7247 23.7075 25.1255 23.0908 25.3836 22.411C25.7353 21.4731 25.9189 20.4806 25.9261 19.4789C26.0165 17.8127 26.0165 17.3218 26.0165 13.111C26.0165 8.90017 26.0165 8.40934 25.9261 6.74309ZM22.6452 17.0764C22.6038 17.8735 22.4337 18.6587 22.1415 19.4014C21.8907 20.021 21.518 20.5839 21.0453 21.0565C20.5727 21.5291 20.0098 21.9019 19.3903 22.1527C18.6405 22.4286 17.8509 22.5812 17.0523 22.6048C16.0319 22.6048 15.7607 22.6048 13.0998 22.6048C10.439 22.6048 10.1677 22.6048 9.14733 22.6048C8.34873 22.5812 7.55921 22.4286 6.80942 22.1527C6.16888 21.9146 5.59044 21.5349 5.11733 21.0418C4.64932 20.5785 4.28788 20.0187 4.05817 19.4014C3.78118 18.6524 3.6327 17.862 3.619 17.0635C3.619 16.0431 3.619 15.7718 3.619 13.111C3.619 10.4502 3.619 10.1789 3.619 9.1585C3.6327 8.36003 3.78118 7.5696 4.05817 6.82059C4.2962 6.18005 4.67594 5.60161 5.169 5.1285C5.63443 4.66302 6.19363 4.30196 6.80942 4.06934C7.55921 3.79344 8.34873 3.64077 9.14733 3.61725C10.1677 3.61725 10.439 3.61725 13.0998 3.61725C15.7607 3.61725 16.0319 3.61725 17.0523 3.61725C17.8509 3.64077 18.6405 3.79344 19.3903 4.06934C20.0308 4.30737 20.6092 4.68711 21.0823 5.18017C21.5503 5.64355 21.9118 6.20334 22.1415 6.82059C22.4174 7.57038 22.5701 8.3599 22.5936 9.1585C22.5936 10.1789 22.5936 10.4502 22.5936 13.111C22.5936 15.7718 22.684 16.0431 22.6452 17.0635V17.0764ZM20.5786 7.46642C20.4248 7.04919 20.1823 6.67029 19.8679 6.35586C19.5535 6.04143 19.1746 5.79896 18.7573 5.64517C18.1844 5.44659 17.5811 5.3504 16.9748 5.361C15.9673 5.361 15.6832 5.361 13.0998 5.361C10.5165 5.361 10.2323 5.361 9.22483 5.361C8.61551 5.36696 8.01205 5.48065 7.44233 5.69684C7.03149 5.84364 6.6566 6.07621 6.34259 6.3791C6.02857 6.68198 5.78262 7.04823 5.62108 7.4535C5.4335 8.02877 5.34186 8.63098 5.34983 9.236C5.34983 10.2435 5.34983 10.5277 5.34983 13.111C5.34983 15.6943 5.34983 15.9785 5.34983 16.986C5.36264 17.5946 5.47612 18.1969 5.68567 18.7685C5.83946 19.1857 6.08193 19.5646 6.39636 19.8791C6.71079 20.1935 7.08969 20.436 7.50692 20.5898C8.05803 20.7924 8.63797 20.9058 9.22483 20.9256C10.2323 20.9256 10.5165 20.9256 13.0998 20.9256C15.6832 20.9256 15.9673 20.9256 16.9748 20.9256C17.5842 20.9196 18.1876 20.8059 18.7573 20.5898C19.1746 20.436 19.5535 20.1935 19.8679 19.8791C20.1823 19.5646 20.4248 19.1857 20.5786 18.7685C20.7948 18.1988 20.9085 17.5953 20.9144 16.986C20.9144 15.9785 20.9144 15.6943 20.9144 13.111C20.9144 10.5277 20.9144 10.2435 20.9144 9.236C20.9148 8.62607 20.8009 8.02148 20.5786 7.4535V7.46642ZM13.0998 18.0452C12.4525 18.0452 11.8115 17.9175 11.2136 17.6693C10.6156 17.4212 10.0726 17.0576 9.61541 16.5992C9.15826 16.1409 8.79603 15.5968 8.54948 14.9983C8.30292 14.3997 8.17688 13.7584 8.17858 13.111C8.17859 12.1346 8.4683 11.1801 9.01105 10.3684C9.55379 9.55669 10.3252 8.92428 11.2275 8.5512C12.1299 8.17813 13.1226 8.08118 14.0801 8.27261C15.0376 8.46405 15.9168 8.93526 16.6063 9.62661C17.2958 10.318 17.7648 11.1984 17.9537 12.1563C18.1426 13.1143 18.043 14.1068 17.6676 15.0082C17.2922 15.9096 16.6577 16.6793 15.8446 17.2199C15.0315 17.7605 14.0763 18.0477 13.0998 18.0452ZM18.2665 9.14559C17.981 9.11536 17.7167 8.98054 17.5247 8.76709C17.3326 8.55364 17.2264 8.27667 17.2264 7.98954C17.2264 7.70242 17.3326 7.42545 17.5247 7.212C17.7167 6.99855 17.981 6.86373 18.2665 6.8335C18.552 6.86373 18.8163 6.99855 19.0083 7.212C19.2004 7.42545 19.3066 7.70242 19.3066 7.98954C19.3066 8.27667 19.2004 8.55364 19.0083 8.76709C18.8163 8.98054 18.552 9.11536 18.2665 9.14559Z" fill="#007B47"/>
</svg>
