<svg width="27" height="26" viewBox="0 0 27 26" fill="none" xmlns="http://www.w3.org/2000/svg">
<path d="M26.3498 2.23371V23.9831C26.3499 24.2294 26.3015 24.4733 26.2073 24.7009C26.1131 24.9285 25.975 25.1353 25.8008 25.3094C25.6267 25.4836 25.4199 25.6217 25.1923 25.7159C24.9647 25.8101 24.7208 25.8585 24.4745 25.8584H2.7251C2.22774 25.8584 1.75075 25.6608 1.39906 25.3091C1.04737 24.9574 0.849792 24.4804 0.849792 23.9831V2.23371C0.849792 1.73635 1.04737 1.25935 1.39906 0.907665C1.75075 0.555975 2.22774 0.358398 2.7251 0.358398H24.4745C24.9718 0.358398 25.4488 0.555975 25.8005 0.907665C26.1522 1.25935 26.3498 1.73635 26.3498 2.23371ZM8.34998 10.109H4.59935V22.1078H8.34998V10.109ZM8.68785 5.98327C8.68981 5.69952 8.63585 5.41816 8.52903 5.15527C8.42222 4.89238 8.26466 4.65311 8.06534 4.45113C7.86603 4.24916 7.62888 4.08843 7.36743 3.97814C7.10598 3.86784 6.82536 3.81014 6.54161 3.80834H6.47467C5.89784 3.80834 5.34463 4.03748 4.93675 4.44536C4.52887 4.85324 4.29973 5.40644 4.29973 5.98327C4.29973 6.5601 4.52887 7.11331 4.93675 7.52119C5.34463 7.92907 5.89784 8.15821 6.47467 8.15821C7.04726 8.17162 7.60178 7.9573 8.01652 7.56228C8.43125 7.16727 8.67231 6.62384 8.68679 6.05127L8.68785 5.98327ZM22.5992 14.819C22.5992 11.2118 20.3042 9.80934 18.024 9.80934C17.2775 9.77194 16.5342 9.93092 15.8683 10.2704C15.2024 10.6099 14.6371 11.118 14.2288 11.7441H14.1236V10.11H10.5993V22.1078H14.3489V15.7243C14.2948 15.0707 14.5007 14.4223 14.9218 13.9196C15.3429 13.4169 15.9453 13.1006 16.5982 13.0393H16.7416C17.9337 13.0393 18.8188 13.7895 18.8188 15.6796V22.1078H22.5694L22.5992 14.8169V14.819Z" fill="#007B47"/>
</svg>
