<svg width="64" height="64" viewBox="0 0 64 64" fill="none" xmlns="http://www.w3.org/2000/svg">
<path d="M32.0004 20C30.3338 20 28.7817 20.3125 27.3442 20.9375C25.9067 21.5625 24.6358 22.4167 23.5317 23.5C22.4275 24.5833 21.5629 25.8646 20.9379 27.3438C20.3129 28.8229 20.0004 30.375 20.0004 32C20.0004 33.6667 20.3129 35.2188 20.9379 36.6562C21.5629 38.0938 22.4171 39.3646 23.5004 40.4688C24.5838 41.5729 25.8546 42.4375 27.3129 43.0625C28.7713 43.6875 30.3338 44 32.0004 44C33.6463 44 35.1983 43.6875 36.6567 43.0625C38.115 42.4375 39.3858 41.5833 40.4692 40.5C41.5525 39.4167 42.4171 38.1458 43.0629 36.6875C43.7088 35.2292 44.0213 33.6667 44.0004 32C44.0004 30.6667 43.7713 29.3333 43.3129 28H47.5004C47.6671 28.6667 47.7921 29.3333 47.8754 30C47.9588 30.6667 48.0004 31.3333 48.0004 32C48.0004 34.2083 47.5838 36.2812 46.7504 38.2188C45.9171 40.1562 44.7713 41.8438 43.3129 43.2812C41.8546 44.7188 40.1567 45.8646 38.2192 46.7188C36.2817 47.5729 34.2088 48 32.0004 48C29.7921 48 27.7192 47.5833 25.7817 46.75C23.8442 45.9167 22.1567 44.7708 20.7192 43.3125C19.2817 41.8542 18.1358 40.1562 17.2817 38.2188C16.4275 36.2812 16.0108 34.2083 16.0317 32C16.0317 29.7917 16.4483 27.7188 17.2817 25.7812C18.115 23.8438 19.2504 22.1562 20.6879 20.7188C22.1254 19.2812 23.8233 18.1354 25.7817 17.2812C27.74 16.4271 29.8129 16 32.0004 16C32.6671 16 33.3338 16.0417 34.0004 16.125C34.6671 16.2083 35.3338 16.3333 36.0004 16.5V20.6875C34.6671 20.2292 33.3338 20 32.0004 20ZM59.0629 24.8438C59.6879 27.1979 60.0004 29.5833 60.0004 32C60.0004 34.5625 59.6671 37.0312 59.0004 39.4062C58.3338 41.7812 57.3963 44.0104 56.1879 46.0938C54.9796 48.1771 53.5108 50.0729 51.7817 51.7812C50.0525 53.4896 48.1671 54.9479 46.1254 56.1562C44.0838 57.3646 41.8546 58.3125 39.4379 59C37.0213 59.6875 34.5421 60.0208 32.0004 60C29.4379 60 26.9692 59.6667 24.5942 59C22.2192 58.3333 19.99 57.3958 17.9067 56.1875C15.8233 54.9792 13.9275 53.5104 12.2192 51.7812C10.5108 50.0521 9.05251 48.1667 7.84418 46.125C6.63585 44.0833 5.68793 41.8542 5.00043 39.4375C4.31293 37.0208 3.9796 34.5417 4.00043 32C4.00043 29.4375 4.33376 26.9688 5.00043 24.5938C5.6671 22.2188 6.6046 19.9896 7.81293 17.9062C9.02126 15.8229 10.49 13.9271 12.2192 12.2188C13.9483 10.5104 15.8338 9.05208 17.8754 7.84375C19.9171 6.63542 22.1463 5.6875 24.5629 5C26.9796 4.3125 29.4588 3.97917 32.0004 4C34.4171 4 36.8025 4.3125 39.1567 4.9375L36.0004 8.09375V8.34375C35.3338 8.23958 34.6671 8.15625 34.0004 8.09375C33.3338 8.03125 32.6671 8 32.0004 8C29.7921 8 27.6671 8.28125 25.6254 8.84375C23.5838 9.40625 21.6775 10.2188 19.9067 11.2812C18.1358 12.3438 16.5108 13.5938 15.0317 15.0312C13.5525 16.4688 12.3025 18.0833 11.2817 19.875C10.2608 21.6667 9.45876 23.5833 8.87543 25.625C8.2921 27.6667 8.00043 29.7917 8.00043 32C8.00043 34.2083 8.28168 36.3333 8.84418 38.375C9.40668 40.4167 10.2192 42.3229 11.2817 44.0938C12.3442 45.8646 13.5942 47.4896 15.0317 48.9688C16.4692 50.4479 18.0838 51.6979 19.8754 52.7188C21.6671 53.7396 23.5838 54.5417 25.6254 55.125C27.6671 55.7083 29.7921 56 32.0004 56C34.2088 56 36.3338 55.7188 38.3754 55.1562C40.4171 54.5938 42.3233 53.7812 44.0942 52.7188C45.865 51.6562 47.49 50.4062 48.9692 48.9688C50.4483 47.5312 51.6983 45.9167 52.7192 44.125C53.74 42.3333 54.5421 40.4167 55.1254 38.375C55.7088 36.3333 56.0004 34.2083 56.0004 32C56.0004 31.3333 55.9692 30.6667 55.9067 30C55.8442 29.3333 55.7608 28.6667 55.6567 28H55.9067L59.0629 24.8438ZM40.0004 21.1562V12.1875L52.0004 0.1875V12H63.8129L51.8129 24H42.8442L35.8754 30.9688C35.9588 31.2812 36.0004 31.625 36.0004 32C36.0004 32.5625 35.8963 33.0833 35.6879 33.5625C35.4796 34.0417 35.1983 34.4583 34.8442 34.8125C34.49 35.1667 34.0629 35.4583 33.5629 35.6875C33.0629 35.9167 32.5421 36.0208 32.0004 36C31.4379 36 30.9171 35.8958 30.4379 35.6875C29.9588 35.4792 29.5421 35.1979 29.1879 34.8438C28.8338 34.4896 28.5421 34.0625 28.3129 33.5625C28.0838 33.0625 27.9796 32.5417 28.0004 32C28.0004 31.4375 28.1046 30.9167 28.3129 30.4375C28.5213 29.9583 28.8025 29.5417 29.1567 29.1875C29.5108 28.8333 29.9379 28.5417 30.4379 28.3125C30.9379 28.0833 31.4588 27.9792 32.0004 28C32.3754 28 32.7192 28.0417 33.0317 28.125L40.0004 21.1562ZM44.0004 20H50.1567L54.1567 16H48.0004V9.84375L44.0004 13.8438V20Z" fill="#F8DC58"/>
</svg>
