<svg width="49" height="50" viewBox="0 0 49 50" fill="none" xmlns="http://www.w3.org/2000/svg">
<rect y="0.128906" width="49" height="49" rx="24.5" fill="#FBECA3"/>
<g clip-path="url(#clip0_378_5194)">
<path d="M36.3742 20.6753H33.4635C33.3749 20.6753 33.2899 20.6398 33.2272 20.5767C33.1645 20.5135 33.1293 20.4279 33.1293 20.3386V15.1467C33.1293 15.0574 33.1645 14.9718 33.2272 14.9086C33.2899 14.8454 33.3749 14.81 33.4635 14.81H33.7328V14.3188H32.9297C32.841 14.3188 32.756 14.3543 32.6934 14.4175C32.6307 14.4806 32.5955 14.5663 32.5955 14.6556V20.3386C32.5955 20.4279 32.5602 20.5135 32.4976 20.5767C32.4349 20.6398 32.3499 20.6753 32.2612 20.6753H26.8763C26.7877 20.6753 26.7027 20.6398 26.64 20.5767C26.5773 20.5135 26.5421 20.4279 26.5421 20.3386V15.4508C26.5421 15.3614 26.5069 15.2758 26.4442 15.2126C26.3815 15.1495 26.2965 15.114 26.2079 15.114H17.7592C17.6725 15.1127 17.5889 15.1459 17.5264 15.2063C17.4638 15.2667 17.4274 15.3495 17.4249 15.4367L17.2532 19.5247C17.2487 19.6076 17.214 19.6859 17.1558 19.7446C17.0975 19.8033 17.0198 19.8383 16.9375 19.8428C15.3492 19.9538 13.8445 20.6015 12.6667 21.681C12.6055 21.7431 12.5712 21.8272 12.5712 21.9148C12.5712 22.0024 12.6055 22.0865 12.6667 22.1487L13.0521 22.5322C13.1144 22.5928 13.1976 22.6267 13.2842 22.6267C13.3708 22.6267 13.454 22.5928 13.5163 22.5322C14.5631 21.6887 15.8617 21.2256 17.2021 21.2179H17.2393C17.6369 21.218 18.0335 21.2588 18.423 21.3395C19.1327 21.4812 19.8098 21.7556 20.4191 22.1487C20.8461 22.4043 21.2352 22.7192 21.575 23.0841C22.1613 23.6997 22.6093 24.4351 22.8888 25.2404C22.9993 25.5435 23.0801 25.8569 23.1301 26.1759C23.1954 26.5244 23.2281 26.8783 23.2276 27.2329C23.2272 27.7521 23.1617 28.2691 23.0327 28.7718C23.0207 28.8207 23.0199 28.8717 23.0304 28.921C23.0409 28.9703 23.0624 29.0165 23.0933 29.0562C23.1242 29.0959 23.1636 29.1279 23.2086 29.15C23.2536 29.172 23.3029 29.1834 23.353 29.1834H28.1112C28.1944 29.1825 28.2743 29.1504 28.3352 29.0933C28.3962 29.0362 28.4338 28.9582 28.4407 28.8747C28.5429 27.956 28.8871 27.0816 29.4376 26.3421C29.9882 25.6026 30.725 25.0249 31.5717 24.6689C32.4184 24.313 33.3443 24.1917 34.2532 24.3177C35.1621 24.4437 36.021 24.8123 36.7409 25.3854C36.7864 25.4237 36.8414 25.4489 36.8999 25.4584C36.9585 25.4679 37.0185 25.4612 37.0737 25.4392C37.1288 25.4172 37.177 25.3806 37.2132 25.3332C37.2494 25.2859 37.2723 25.2296 37.2794 25.1702L37.66 22.0551C37.6729 21.8777 37.6491 21.6996 37.5901 21.5319C37.5311 21.3642 37.4383 21.2107 37.3175 21.0811C37.1966 20.9514 37.0504 20.8484 36.888 20.7785C36.7257 20.7087 36.5507 20.6736 36.3742 20.6753ZM20.3959 19.9691C20.3972 20.0253 20.3845 20.0809 20.359 20.131C20.3334 20.181 20.2959 20.2237 20.2497 20.2554C20.2035 20.287 20.1503 20.3065 20.0947 20.312C20.0392 20.3176 19.9831 20.309 19.9317 20.2871C19.5583 20.1427 19.1731 20.0315 18.7805 19.955C18.6997 19.9413 18.6269 19.8977 18.5763 19.8329C18.5257 19.768 18.5008 19.6865 18.5066 19.6042L18.7155 16.592C18.7224 16.5072 18.7605 16.4281 18.8223 16.3701C18.8842 16.3121 18.9652 16.2795 19.0497 16.2786H20.0477C20.1364 16.2786 20.2214 16.3141 20.2841 16.3773C20.3468 16.4404 20.382 16.5261 20.382 16.6154L20.3959 19.9691ZM25.3398 24.9598C25.3398 25.0491 25.3046 25.1347 25.2419 25.1979C25.1792 25.261 25.0942 25.2965 25.0056 25.2965H24.7688C24.6447 25.2953 24.5242 25.2536 24.4255 25.1777C24.3268 25.1019 24.2551 24.9959 24.221 24.8756C23.7796 23.4268 22.8918 22.1572 21.6864 21.2506C21.6454 21.2194 21.6119 21.1792 21.5886 21.133C21.5653 21.0868 21.5527 21.0358 21.5518 20.984V16.6154C21.553 16.5265 21.5886 16.4415 21.651 16.3786C21.7135 16.3157 21.7978 16.2799 21.886 16.2786H25.0056C25.0942 16.2786 25.1792 16.3141 25.2419 16.3773C25.3046 16.4404 25.3398 16.5261 25.3398 16.6154V24.9598Z" fill="#0F4326"/>
<path d="M21.7645 28.3225C21.7476 28.3201 21.7304 28.3201 21.7134 28.3225C21.7134 28.2524 21.7134 28.1822 21.7134 28.1074C21.7134 28.0325 21.7134 27.967 21.7134 27.8969C21.7302 27.9012 21.7477 27.9012 21.7645 27.8969C21.9422 27.8649 22.1002 27.7633 22.2037 27.6143C22.3073 27.4653 22.348 27.2809 22.3169 27.1017C22.2841 26.922 22.1825 26.7624 22.034 26.6574C21.8855 26.5525 21.702 26.5104 21.5231 26.5405H21.4767C21.4377 26.4048 21.3896 26.272 21.3328 26.1429L21.3792 26.1195C21.4579 26.0747 21.527 26.0146 21.5825 25.9427C21.638 25.8708 21.6787 25.7885 21.7023 25.7006C21.726 25.6127 21.7321 25.5209 21.7202 25.4306C21.7084 25.3403 21.6788 25.2533 21.6333 25.1746C21.5878 25.0959 21.5272 25.0271 21.4551 24.9722C21.383 24.9173 21.3008 24.8774 21.2132 24.8547C21.1256 24.8321 21.0345 24.8273 20.945 24.8404C20.8556 24.8536 20.7696 24.8845 20.6922 24.9315L20.655 24.9595C20.5715 24.8473 20.4786 24.7397 20.3858 24.6321C20.3858 24.6321 20.409 24.6321 20.4229 24.604C20.525 24.4624 20.5701 24.287 20.549 24.1131C20.5279 23.9393 20.4422 23.7801 20.3091 23.6674C20.1761 23.5547 20.0057 23.497 19.8321 23.5059C19.6585 23.5148 19.4948 23.5896 19.3738 23.7154C19.3738 23.7154 19.3506 23.7387 19.3459 23.7528C19.2299 23.6761 19.109 23.6074 18.9839 23.547C18.9865 23.5315 18.9865 23.5157 18.9839 23.5002C19.0454 23.3284 19.0367 23.139 18.9597 22.9736C18.8826 22.8083 18.7435 22.6805 18.573 22.6185C18.4025 22.5565 18.2145 22.5653 18.0504 22.6429C17.8863 22.7205 17.7595 22.8607 17.698 23.0325C17.6958 23.0464 17.6958 23.0606 17.698 23.0746C17.562 23.0417 17.424 23.0183 17.2848 23.0044C17.2871 22.9873 17.2871 22.97 17.2848 22.9529C17.2848 22.7706 17.2129 22.5957 17.085 22.4668C16.957 22.3378 16.7834 22.2654 16.6024 22.2654C16.4215 22.2654 16.2479 22.3378 16.1199 22.4668C15.9919 22.5957 15.92 22.7706 15.92 22.9529V23.0044C15.7809 23.0183 15.6429 23.0417 15.5069 23.0746V23.0325C15.4385 22.8707 15.3113 22.7414 15.1513 22.6713C14.9912 22.6012 14.8106 22.5954 14.6466 22.6553C14.4825 22.7152 14.3474 22.8362 14.2692 22.9933C14.1909 23.1505 14.1753 23.3318 14.2257 23.5002V23.5423C14.1015 23.6061 13.9806 23.6764 13.8636 23.7528L13.8357 23.7154C13.7778 23.6463 13.707 23.5893 13.6272 23.5478C13.5475 23.5063 13.4604 23.481 13.3709 23.4734C13.2815 23.4658 13.1914 23.476 13.1059 23.5035C13.0204 23.531 12.9411 23.5751 12.8725 23.6335C12.8039 23.6919 12.7474 23.7632 12.7062 23.8436C12.665 23.924 12.6399 24.0117 12.6324 24.1018C12.6248 24.1919 12.635 24.2827 12.6622 24.3689C12.6895 24.455 12.7333 24.5349 12.7912 24.604C12.7912 24.604 12.7912 24.604 12.8237 24.6321C12.7289 24.7356 12.6405 24.845 12.5591 24.9595L12.5127 24.9315C12.3564 24.8409 12.1707 24.8166 11.9966 24.864C11.8225 24.9114 11.6742 25.0265 11.5843 25.184C11.4944 25.3416 11.4703 25.5286 11.5173 25.7041C11.5643 25.8795 11.6786 26.0289 11.835 26.1195C11.8472 26.13 11.8614 26.138 11.8767 26.1429C11.821 26.2738 11.7746 26.4048 11.7282 26.5405C11.7282 26.5405 11.7003 26.5405 11.6864 26.5405C11.5075 26.5104 11.324 26.5525 11.1755 26.6574C11.0271 26.7624 10.9254 26.922 10.8926 27.1017C10.8773 27.1908 10.8795 27.2821 10.8992 27.3702C10.919 27.4584 10.9557 27.5419 11.0075 27.6157C11.0592 27.6896 11.1249 27.7524 11.2008 27.8007C11.2767 27.8489 11.3612 27.8816 11.4497 27.8969H11.4961C11.4915 27.967 11.4915 28.0373 11.4961 28.1074C11.4913 28.179 11.4913 28.2509 11.4961 28.3225H11.4497C11.3613 28.3382 11.2768 28.3712 11.2011 28.4198C11.1254 28.4683 11.0599 28.5314 11.0084 28.6055C10.9569 28.6795 10.9203 28.7631 10.9009 28.8514C10.8814 28.9397 10.8794 29.0309 10.8949 29.12C10.9105 29.2091 10.9433 29.2942 10.9915 29.3705C11.0397 29.4467 11.1023 29.5127 11.1758 29.5646C11.2493 29.6165 11.3322 29.6533 11.4198 29.673C11.5074 29.6926 11.598 29.6946 11.6864 29.6789H11.7282C11.7746 29.8146 11.821 29.9455 11.8767 30.0765H11.835C11.7575 30.1213 11.6896 30.1811 11.6351 30.2524C11.5806 30.3237 11.5406 30.4051 11.5173 30.4919C11.4941 30.5788 11.488 30.6694 11.4995 30.7587C11.511 30.8479 11.5398 30.934 11.5843 31.012C11.6288 31.09 11.6881 31.1584 11.7588 31.2133C11.8296 31.2682 11.9104 31.3085 11.9966 31.332C12.0828 31.3555 12.1727 31.3616 12.2613 31.35C12.3499 31.3384 12.4353 31.3094 12.5127 31.2646C12.5297 31.258 12.5454 31.2485 12.5591 31.2365C12.6394 31.3519 12.7278 31.4614 12.8237 31.5639C12.8118 31.5736 12.8009 31.5846 12.7912 31.5966C12.675 31.7362 12.6185 31.9166 12.6342 32.0982C12.6498 32.2797 12.7364 32.4476 12.8748 32.5648C12.9429 32.624 13.022 32.6689 13.1076 32.6967C13.1931 32.7246 13.2833 32.7349 13.3729 32.7271C13.4625 32.7192 13.5496 32.6934 13.629 32.651C13.7085 32.6087 13.7788 32.5508 13.8357 32.4807L13.8636 32.4479C13.9843 32.5227 14.1003 32.5929 14.2257 32.6584C14.2265 32.6708 14.2265 32.6834 14.2257 32.6958C14.1946 32.7809 14.1806 32.8713 14.1843 32.9618C14.188 33.0523 14.2095 33.1413 14.2475 33.2234C14.2854 33.3056 14.3391 33.3793 14.4055 33.4405C14.4719 33.5017 14.5496 33.549 14.6342 33.5798C14.7182 33.6117 14.8077 33.6263 14.8974 33.6228C14.9872 33.6193 15.0753 33.5977 15.1566 33.5593C15.2379 33.521 15.3108 33.4666 15.371 33.3994C15.4311 33.3323 15.4773 33.2537 15.5069 33.1682V33.1261C15.6429 33.159 15.7809 33.1824 15.92 33.1963V33.2431C15.92 33.4254 15.9919 33.6003 16.1199 33.7292C16.2479 33.8582 16.4215 33.9306 16.6024 33.9306C16.7834 33.9306 16.957 33.8582 17.085 33.7292C17.2129 33.6003 17.2848 33.4254 17.2848 33.2431C17.2871 33.2275 17.2871 33.2118 17.2848 33.1963C17.424 33.1824 17.562 33.159 17.698 33.1261C17.6958 33.1401 17.6958 33.1543 17.698 33.1682C17.7595 33.34 17.8863 33.4802 18.0504 33.5578C18.2145 33.6354 18.4025 33.6442 18.573 33.5822C18.7435 33.5201 18.8826 33.3924 18.9597 33.2271C19.0367 33.0617 19.0454 32.8723 18.9839 32.7005C18.9856 32.6865 18.9856 32.6724 18.9839 32.6584C19.108 32.5962 19.2289 32.5275 19.3459 32.4526L19.3738 32.4853C19.4307 32.5555 19.501 32.6134 19.5805 32.6557C19.66 32.6981 19.7471 32.7239 19.8366 32.7317C19.9262 32.7396 20.0164 32.7293 20.102 32.7014C20.1875 32.6736 20.2667 32.6287 20.3347 32.5695C20.4738 32.4529 20.5613 32.2854 20.5778 32.1038C20.5943 31.9223 20.5386 31.7415 20.4229 31.6013L20.3858 31.5686C20.4786 31.4657 20.5715 31.3534 20.655 31.2412C20.665 31.2534 20.6777 31.263 20.6922 31.2692C20.7696 31.3161 20.8556 31.3471 20.945 31.3603C21.0345 31.3734 21.1256 31.3686 21.2132 31.3459C21.3008 31.3233 21.383 31.2834 21.4551 31.2285C21.5272 31.1736 21.5878 31.1048 21.6333 31.0261C21.6788 30.9474 21.7084 30.8604 21.7202 30.7701C21.7321 30.6798 21.726 30.588 21.7023 30.5001C21.6787 30.4122 21.638 30.3299 21.5825 30.258C21.527 30.1861 21.4579 30.126 21.3792 30.0812H21.3328C21.3896 29.9521 21.4377 29.8193 21.4767 29.6836H21.5231C21.7016 29.7159 21.8855 29.6753 22.0344 29.571C22.1833 29.4666 22.2849 29.3069 22.3169 29.127C22.3489 28.9471 22.3087 28.7618 22.2051 28.6118C22.1015 28.4618 21.943 28.3594 21.7645 28.3272V28.3225ZM16.6117 30.9792C16.048 30.9792 15.4969 30.8108 15.0282 30.4952C14.5595 30.1797 14.1941 29.7311 13.9784 29.2064C13.7627 28.6816 13.7062 28.1042 13.8162 27.5471C13.9262 26.99 14.1977 26.4783 14.5963 26.0766C14.9949 25.675 15.5028 25.4015 16.0557 25.2907C16.6086 25.1799 17.1816 25.2367 17.7025 25.4541C18.2233 25.6715 18.6684 26.0396 18.9816 26.5118C19.2948 26.9841 19.462 27.5394 19.462 28.1074C19.462 28.869 19.1617 29.5995 18.6272 30.1381C18.0926 30.6767 17.3677 30.9792 16.6117 30.9792ZM37.571 29.6789H37.5338C37.5338 29.6275 37.5338 29.5714 37.5338 29.5199C37.5338 29.4685 37.5338 29.4123 37.5338 29.3609C37.5458 29.3656 37.559 29.3656 37.571 29.3609C37.6371 29.3492 37.7003 29.3245 37.757 29.2882C37.8137 29.252 37.8627 29.2048 37.9013 29.1494C37.9399 29.094 37.9673 29.0315 37.9819 28.9655C37.9965 28.8995 37.998 28.8312 37.9865 28.7645C37.9749 28.6979 37.9504 28.6342 37.9144 28.5771C37.8783 28.52 37.8315 28.4706 37.7766 28.4317C37.7216 28.3928 37.6596 28.3652 37.594 28.3505C37.5285 28.3358 37.4607 28.3342 37.3946 28.3459H37.3574C37.3288 28.2437 37.2931 28.1437 37.2507 28.0466H37.2832C37.4007 27.9789 37.4868 27.867 37.5225 27.7354C37.5582 27.6039 37.5405 27.4634 37.4735 27.345C37.4055 27.2262 37.2936 27.1394 37.1623 27.1035C37.0309 27.0675 36.8908 27.0854 36.7725 27.1532C36.7725 27.1532 36.7493 27.1532 36.7447 27.1766C36.6797 27.0924 36.6101 27.0082 36.5404 26.9333L36.5683 26.9053C36.6551 26.8005 36.697 26.6652 36.6848 26.5292C36.6726 26.3933 36.6073 26.2678 36.5033 26.1803C36.3993 26.0928 36.265 26.0506 36.1301 26.0629C35.9951 26.0752 35.8706 26.141 35.7838 26.2458C35.7838 26.2458 35.7838 26.2458 35.7605 26.2458C35.674 26.1888 35.5841 26.1373 35.4913 26.0914V26.0587C35.5239 25.9333 35.5088 25.8001 35.4489 25.6854C35.389 25.5706 35.2887 25.4826 35.1677 25.4386C35.0466 25.3946 34.9136 25.3979 34.7948 25.4477C34.676 25.4975 34.58 25.5904 34.5257 25.7079C34.5257 25.7079 34.5257 25.7079 34.5257 25.7406C34.4236 25.7406 34.3168 25.6985 34.2147 25.6845C34.217 25.6737 34.217 25.6626 34.2147 25.6518C34.2026 25.5232 34.1433 25.4038 34.0484 25.3169C33.9536 25.23 33.83 25.1818 33.7018 25.1818C33.5736 25.1818 33.4499 25.23 33.3551 25.3169C33.2602 25.4038 33.201 25.5232 33.1888 25.6518C33.1866 25.6626 33.1866 25.6737 33.1888 25.6845C33.082 25.6845 32.9799 25.7172 32.8778 25.7406C32.8784 25.7297 32.8784 25.7188 32.8778 25.7079C32.8549 25.6443 32.8199 25.5859 32.7746 25.536C32.7293 25.4861 32.6747 25.4456 32.614 25.417C32.5532 25.3883 32.4874 25.372 32.4203 25.3689C32.3533 25.3659 32.2863 25.3762 32.2232 25.3992C32.1601 25.4222 32.1022 25.4576 32.0526 25.5032C32.0031 25.5488 31.9629 25.6038 31.9345 25.665C31.906 25.7262 31.8898 25.7925 31.8868 25.8601C31.8838 25.9276 31.894 25.9951 31.9169 26.0587V26.0914C31.824 26.1382 31.7358 26.1897 31.643 26.2458C31.5562 26.141 31.4316 26.0752 31.2967 26.0629C31.1617 26.0506 31.0275 26.0928 30.9234 26.1803C30.8194 26.2678 30.7541 26.3933 30.7419 26.5292C30.7297 26.6652 30.7716 26.8005 30.8584 26.9053L30.8817 26.9333C30.8102 27.0102 30.7435 27.0914 30.682 27.1766L30.6496 27.1532C30.5323 27.0901 30.3952 27.0755 30.2675 27.1127C30.1397 27.1498 30.0314 27.2357 29.9655 27.352C29.8996 27.4683 29.8813 27.606 29.9146 27.7357C29.9478 27.8654 30.03 27.9769 30.1436 28.0466H30.1761C30.1343 28.1448 30.0971 28.243 30.0646 28.3459H30.0321C29.966 28.3342 29.8982 28.3358 29.8327 28.3505C29.7672 28.3652 29.7051 28.3928 29.6502 28.4317C29.5952 28.4706 29.5484 28.52 29.5124 28.5771C29.4764 28.6342 29.4519 28.6979 29.4403 28.7645C29.4287 28.8312 29.4303 28.8995 29.4449 28.9655C29.4595 29.0315 29.4869 29.094 29.5254 29.1494C29.564 29.2048 29.613 29.252 29.6697 29.2882C29.7264 29.3245 29.7896 29.3492 29.8557 29.3609H29.8743C29.8743 29.4123 29.8743 29.4638 29.8743 29.5199C29.8743 29.576 29.8743 29.6275 29.8743 29.6789C29.7489 29.7116 29.6403 29.7906 29.5701 29.9003C29.4999 30.0099 29.4733 30.1422 29.4955 30.2708C29.5178 30.3993 29.5873 30.5147 29.6901 30.594C29.793 30.6733 29.9218 30.7106 30.0507 30.6986H30.0832C30.1157 30.7968 30.1528 30.895 30.1946 30.9979C30.1895 30.9958 30.184 30.9946 30.1784 30.9946C30.1728 30.9946 30.1673 30.9958 30.1621 30.9979C30.0975 31.0276 30.0397 31.0706 29.9924 31.1241C29.9452 31.1776 29.9096 31.2404 29.8878 31.3086C29.866 31.3768 29.8586 31.4487 29.8661 31.52C29.8735 31.5912 29.8956 31.66 29.931 31.7221C29.9663 31.7842 30.0142 31.8382 30.0714 31.8806C30.1287 31.9231 30.1941 31.953 30.2635 31.9684C30.3329 31.9839 30.4047 31.9846 30.4744 31.9706C30.544 31.9565 30.61 31.9279 30.6681 31.8866H30.7006C30.761 31.9708 30.8306 32.0503 30.9002 32.1299C30.8926 32.1282 30.8847 32.1282 30.877 32.1299C30.8337 32.1818 30.801 32.2417 30.7807 32.3064C30.7605 32.371 30.753 32.4391 30.7589 32.5066C30.7647 32.5741 30.7836 32.6399 30.8147 32.7C30.8457 32.7602 30.8882 32.8136 30.9397 32.8572C30.9912 32.9008 31.0507 32.9337 31.1149 32.9542C31.179 32.9746 31.2466 32.9821 31.3136 32.9762C31.3806 32.9704 31.4458 32.9513 31.5056 32.92C31.5653 32.8887 31.6183 32.8459 31.6615 32.794V32.766C31.7544 32.8221 31.8426 32.8782 31.9354 32.925C31.9363 32.9343 31.9363 32.9437 31.9354 32.9531C31.9123 33.0166 31.9017 33.0842 31.9045 33.1519C31.9072 33.2195 31.9232 33.286 31.9514 33.3474C31.9797 33.4089 32.0196 33.4641 32.069 33.51C32.1185 33.5559 32.1764 33.5916 32.2395 33.6149C32.3026 33.6382 32.3696 33.6488 32.4368 33.6461C32.5039 33.6433 32.5699 33.6272 32.6309 33.5988C32.6919 33.5703 32.7467 33.5301 32.7923 33.4803C32.8378 33.4305 32.8732 33.3721 32.8964 33.3085C32.8958 33.2976 32.8958 33.2867 32.8964 33.2758C32.9987 33.3001 33.1026 33.3173 33.2074 33.3272C33.2051 33.3396 33.2051 33.3523 33.2074 33.3647C33.2195 33.4933 33.2788 33.6127 33.3737 33.6996C33.4685 33.7865 33.5921 33.8346 33.7203 33.8346C33.8485 33.8346 33.9721 33.7865 34.067 33.6996C34.1618 33.6127 34.2211 33.4933 34.2333 33.3647C34.2356 33.3523 34.2356 33.3396 34.2333 33.3272C34.338 33.3169 34.4419 33.2998 34.5443 33.2758C34.5443 33.2758 34.5443 33.2758 34.5443 33.3085C34.5976 33.4285 34.694 33.5236 34.8141 33.5747C34.9342 33.6259 35.069 33.6292 35.1915 33.5841C35.3139 33.5391 35.4149 33.4489 35.474 33.3318C35.5331 33.2146 35.5459 33.0793 35.5099 32.9531V32.9203C35.6036 32.8763 35.6936 32.8247 35.7791 32.766L35.8023 32.794C35.8452 32.8462 35.8981 32.8891 35.9577 32.9205C36.0173 32.9518 36.0824 32.9709 36.1494 32.9765C36.2164 32.9822 36.2838 32.9743 36.3478 32.9534C36.4117 32.9325 36.4709 32.899 36.5219 32.8548C36.6249 32.7667 36.6894 32.6414 36.7016 32.5057C36.7137 32.3701 36.6725 32.2351 36.5868 32.1299H36.559C36.6286 32.0503 36.6983 31.9708 36.7632 31.8866C36.7632 31.8866 36.7632 31.8866 36.7911 31.8866C36.8491 31.9257 36.9146 31.9524 36.9832 31.965C37.0519 31.9776 37.1224 31.9759 37.1905 31.96C37.2585 31.9441 37.3225 31.9142 37.3786 31.8724C37.4348 31.8305 37.4818 31.7775 37.5167 31.7166C37.5517 31.6558 37.5739 31.5883 37.582 31.5184C37.5901 31.4485 37.5839 31.3777 37.5637 31.3104C37.5436 31.243 37.5099 31.1805 37.4649 31.1268C37.4198 31.0731 37.3643 31.0292 37.3017 30.9979C37.2966 30.9958 37.2911 30.9946 37.2855 30.9946C37.2799 30.9946 37.2744 30.9958 37.2692 30.9979C37.3102 30.9002 37.3459 30.8003 37.376 30.6986H37.4131C37.482 30.7165 37.5538 30.7199 37.6241 30.7085C37.6943 30.697 37.7615 30.6711 37.8212 30.6322C37.881 30.5934 37.9322 30.5425 37.9715 30.4827C38.0108 30.423 38.0374 30.3557 38.0496 30.2851C38.0618 30.2144 38.0594 30.142 38.0425 30.0724C38.0256 30.0028 37.9945 29.9374 37.9513 29.8805C37.9081 29.8236 37.8536 29.7763 37.7914 29.7416C37.7291 29.7069 37.6604 29.6856 37.5895 29.6789H37.571ZM33.7134 31.6715C33.291 31.6715 32.8782 31.5453 32.527 31.3089C32.1758 31.0725 31.9021 30.7364 31.7405 30.3433C31.5789 29.9501 31.5366 29.5175 31.619 29.1002C31.7014 28.6828 31.9048 28.2994 32.2034 27.9985C32.5021 27.6976 32.8825 27.4927 33.2968 27.4097C33.711 27.3267 34.1403 27.3693 34.5305 27.5321C34.9207 27.695 35.2542 27.9707 35.4889 28.3246C35.7235 28.6784 35.8487 29.0944 35.8487 29.5199C35.8475 30.0902 35.6222 30.6367 35.222 31.0399C34.8218 31.4432 34.2793 31.6702 33.7134 31.6715Z" fill="#0F4326"/>
</g>
<defs>
<clipPath id="clip0_378_5194">
<rect width="27.0962" height="19.6214" fill="white" transform="translate(10.9038 14.3186)"/>
</clipPath>
</defs>
</svg>
