<svg width="64" height="64" viewBox="0 0 64 64" fill="none" xmlns="http://www.w3.org/2000/svg">
<g clip-path="url(#clip0_492_5311)">
<path d="M56.8554 30.5C57.7969 34.0412 56.3373 38.4001 53.0663 42.7622C49.4603 47.5765 43.651 52.3949 36.4329 56.1305C34.1188 57.3284 31.7984 58.3421 29.5158 59.172C17.222 63.6496 6.00278 62.824 2.78153 56.5966C0.82903 52.8234 2.19203 47.796 5.96528 42.7622C8.55953 39.3005 12.295 35.8325 16.8752 32.7721C17.8693 34.4115 19.1694 35.8444 20.7048 36.9926C20.7069 36.9926 20.7069 36.9947 20.7089 36.9967C21.6737 37.9134 22.4652 38.7477 23.1148 39.4999" stroke="#F8DC58" stroke-width="3" stroke-miterlimit="10" stroke-linecap="round" stroke-linejoin="round"/>
<path d="M26.4818 43.8757C27.0858 45.0647 27.0858 45.659 27.0858 45.659V46.6017M27.0858 46.6017H34.4065M27.0858 46.6017H24.9138M34.4065 46.6017V45.659C34.4065 45.6527 34.4106 42.515 41.7208 36.248C42.3755 35.5507 42.9536 34.7854 43.4455 33.9652C44.8167 31.6721 45.5212 28.9607 45.5212 26.053C45.5212 25.5408 45.4961 25.0328 45.4438 24.5332C48.3098 24.5831 50.8406 25.07 52.8751 25.9952M34.4065 46.6017H36.6766M32.9735 55.7673H28.268M36.6768 52.876H24.9131M36.6768 49.7388H24.9131" stroke="#F8DC58" stroke-width="1.875" stroke-miterlimit="10" stroke-linecap="round" stroke-linejoin="round"/>
<path d="M23.0922 39.3755C22.6427 38.9048 22.1815 38.4452 21.7092 37.9973C21.7071 37.9952 21.7071 37.9932 21.7051 37.9932C20.1698 36.8449 18.8696 35.4121 17.8755 33.7727C16.5062 31.5235 15.7202 28.8791 15.7202 26.0528C15.7202 25.5386 15.7453 25.0327 15.7976 24.531C16.5585 17.016 22.905 11.1523 30.6207 11.1523C38.3385 11.1523 44.683 17.0181 45.4438 24.5331C45.4961 25.0327 45.5212 25.5407 45.5212 26.0528C45.5212 28.9606 44.8167 31.6718 43.4455 33.9651C42.9536 34.7853 42.3755 35.5506 41.7208 36.2478C34.4107 42.5148 34.4065 45.6526 34.4065 45.6588V46.6016H27.0858V45.6588C27.0858 45.6588 27.0858 45.0646 26.4818 43.8756" stroke="#F8DC58" stroke-width="3" stroke-miterlimit="10" stroke-linecap="round" stroke-linejoin="round"/>
<path d="M34.4063 46.6016V52.8038L28.4799 52.8749L27.0857 52.8916V46.6016H34.4063Z" stroke="#F8DC58" stroke-width="1.875" stroke-miterlimit="10" stroke-linecap="round" stroke-linejoin="round"/>
<path d="M56.9491 56.7793C53.7277 63.0067 42.8093 63.6493 30.5157 59.1717C28.233 58.3418 25.9126 57.3279 23.5986 56.1302C16.3804 52.3946 10.5711 47.5762 6.96522 42.7619C3.19197 37.7303 1.8291 32.7028 3.78147 28.9297" stroke="#F8DC58" stroke-width="3" stroke-miterlimit="10" stroke-linecap="round" stroke-linejoin="round"/>
<path d="M26.4819 43.8759C27.0859 45.0649 27.0859 45.6591 27.0859 45.6591V46.6019H34.4065V45.6591C34.4065 45.6529 34.4106 42.5151 41.7208 36.2481C42.3755 35.5509 42.9536 34.7856 43.4455 33.9654C47.8938 36.9798 51.527 40.3746 54.0668 43.7631C54.8147 44.7609 55.468 45.7584 56.0193 46.7459M15.7976 24.5312C15.7455 25.0369 15.7196 25.5448 15.7202 26.0531C15.7202 28.8794 16.5062 31.5238 17.8755 33.773C18.8696 35.4124 20.1698 36.8452 21.7051 37.9935C21.7072 37.9935 21.7072 37.9956 21.7092 37.9976C22.674 38.9143 23.4655 39.7486 24.1151 40.5007" stroke="#F8DC58" stroke-width="3" stroke-miterlimit="10" stroke-linecap="round" stroke-linejoin="round"/>
<path d="M6.2009 29.2358C8.53879 29.2358 10.434 27.3405 10.434 25.0027C10.434 22.6648 8.53879 20.7695 6.2009 20.7695C3.86301 20.7695 1.96777 22.6648 1.96777 25.0027C1.96777 27.3405 3.86301 29.2358 6.2009 29.2358Z" stroke="#F8DC58" stroke-width="3" stroke-miterlimit="10" stroke-linecap="round" stroke-linejoin="round"/>
<path d="M57.7995 56.2045C60.1374 56.2045 62.0327 54.3093 62.0327 51.9714C62.0327 49.6335 60.1374 47.7383 57.7995 47.7383C55.4616 47.7383 53.5664 49.6335 53.5664 51.9714C53.5664 54.3093 55.4616 56.2045 57.7995 56.2045Z" stroke="#F8DC58" stroke-width="3" stroke-miterlimit="10" stroke-linecap="round" stroke-linejoin="round"/>
<path d="M30.375 6.75V1.125M43.875 12.375L47.25 9M16.875 12.375L13.5 9" stroke="#F8DC58" stroke-width="3" stroke-miterlimit="10" stroke-linecap="round" stroke-linejoin="round"/>
</g>
<defs>
<clipPath id="clip0_492_5311">
<rect width="64" height="64" fill="white"/>
</clipPath>
</defs>
</svg>
