<svg width="22" height="23" viewBox="0 0 22 23" fill="none" xmlns="http://www.w3.org/2000/svg">
<g clip-path="url(#clip0_540_5408)">
<mask id="mask0_540_5408" style="mask-type:luminance" maskUnits="userSpaceOnUse" x="0" y="1" width="22" height="22">
<path d="M21.76 1.2915H0.76001V22.2915H21.76V1.2915Z" fill="white"/>
</mask>
<g mask="url(#mask0_540_5408)">
<path d="M10.7695 1.2915H11.8767C11.9287 1.30356 11.9808 1.32273 12.0334 1.32657C13.5049 1.42738 14.8997 1.81417 16.1888 2.52641C19.1455 4.15962 20.9561 6.63984 21.5938 9.96325C21.6705 10.3632 21.7056 10.7714 21.7598 11.1757V12.4062C21.7434 12.5536 21.7264 12.701 21.7099 12.8483C21.4393 15.2573 20.508 17.3743 18.7894 19.0892C15.9811 21.891 12.596 22.8722 8.73974 21.9639C5.78521 21.2681 3.55438 19.5187 2.07849 16.861C0.850768 14.6476 0.478233 12.2764 0.970198 9.78902C1.08853 9.18965 1.30384 8.60945 1.46983 8.01939C1.49942 7.91365 1.5679 7.76682 1.61173 7.67039C1.66815 7.54548 1.71472 7.43645 1.78539 7.2962C3.38839 4.0862 5.94956 2.13687 9.4722 1.45806C9.89952 1.37588 10.3367 1.34574 10.7695 1.2915ZM14.9468 2.71981C12.7269 1.85417 10.5235 1.77035 8.28283 2.50121C8.445 2.60366 8.61099 2.70227 8.78904 2.73679C9.35168 2.84527 9.91925 2.92855 10.4846 3.02388C10.8697 3.08907 10.9727 3.25837 10.8522 3.62654C10.7591 3.91198 10.6594 4.19468 10.5684 4.48122C10.5164 4.64504 10.4134 4.74804 10.2512 4.80008C10.0173 4.87514 9.78119 4.94417 9.55383 5.03567C9.4618 5.07292 9.36647 5.14744 9.31388 5.23071C9.03119 5.68161 8.76713 6.14511 8.4828 6.59492C8.4061 6.71655 8.29543 6.83105 8.17381 6.90775C7.67692 7.22004 7.17126 7.51973 6.6645 7.81558C6.55548 7.87913 6.42893 7.92899 6.30511 7.94871C5.68495 8.04624 5.06315 8.13663 4.44025 8.21772C4.30055 8.2358 4.26822 8.28566 4.25617 8.42098C4.23042 8.71519 4.29562 8.95406 4.54653 9.13212C4.63419 9.19458 4.69938 9.28881 4.78101 9.36058C4.91359 9.47728 4.97221 9.61973 4.96344 9.79614C4.95687 9.92763 4.96234 10.0602 4.96234 10.1923L5.01603 10.2114C5.12834 10.0936 5.23736 9.97201 5.3546 9.85915C5.61647 9.60658 5.85478 9.64712 6.02188 9.9742C6.17746 10.2777 6.3336 10.5813 6.47659 10.8913C6.54452 11.0387 6.6256 11.1006 6.79817 11.0973C7.43367 11.0847 8.06917 11.0984 8.70467 11.0891C8.92217 11.0858 9.06296 11.1664 9.17089 11.3521C9.43495 11.8068 9.70504 12.2577 9.98608 12.7021C10.0299 12.7711 10.1406 12.8319 10.2233 12.8363C10.523 12.8522 10.8243 12.8418 11.125 12.8429C11.5282 12.844 11.6586 13.0007 11.5814 13.3935C11.4861 13.8756 11.4017 14.3605 11.2856 14.8371C11.2445 15.0053 11.1448 15.1735 11.0314 15.3072C10.8423 15.5307 10.6408 15.7532 10.409 15.9296C9.96034 16.2704 9.76366 16.6939 9.86611 17.2511C9.8672 17.2576 9.86611 17.2648 9.86611 17.2713C9.8809 17.474 9.79489 17.622 9.63163 17.7403C9.28923 17.9896 8.95559 18.2509 8.61209 18.4986C8.50745 18.5742 8.46143 18.652 8.46417 18.7846C8.47348 19.2081 8.4691 19.6321 8.46691 20.0556C8.46527 20.466 8.27407 20.6068 7.89112 20.4808C7.61227 20.3893 7.3367 20.2885 7.05621 20.203C6.87816 20.1482 6.76804 20.0419 6.70066 19.8683C6.50562 19.3659 6.29525 18.8695 6.1046 18.3654C6.05036 18.2224 6.02078 18.0614 6.01914 17.9085C6.01147 16.9722 6.0153 16.0359 6.0153 15.0996V14.8744C5.56004 14.7845 5.1256 14.6947 4.69007 14.6141C4.47914 14.5752 4.32958 14.4783 4.24083 14.2745C4.14277 14.0498 4.04032 13.8236 3.91048 13.6165C3.62396 13.159 3.5363 12.6708 3.55055 12.1345C3.55986 11.7855 3.63218 11.5083 3.91213 11.2946C3.96362 11.2551 4.00252 11.1992 4.0584 11.1384C3.51768 10.7774 2.99339 10.4196 2.46088 10.0761C2.28941 9.96544 2.18148 9.82683 2.12505 9.63343C2.0615 9.41537 1.98371 9.2017 1.89989 8.95023C0.55274 13.3354 2.46417 18.3594 6.9428 20.5772C11.1913 22.6805 16.3197 21.3897 19.1093 17.6351C19.0014 17.5425 18.8792 17.4527 18.7746 17.3458C18.161 16.7185 18.2766 16.9892 18.264 16.1263C18.2613 15.9351 18.2728 15.7428 18.2602 15.5527C18.253 15.4409 18.2306 15.3215 18.1818 15.2217C17.9101 14.6635 17.6575 14.0926 17.3425 13.5589C16.9607 12.9125 16.7788 12.2391 16.8571 11.4918C16.8664 11.4047 16.8319 11.2606 16.7711 11.2277C16.5098 11.0853 16.3252 10.7993 15.9893 10.7971C15.9494 10.7971 15.9094 10.813 15.8694 10.8229C15.5516 10.9018 15.2355 10.9889 14.915 11.0552C14.8082 11.0776 14.6778 11.0782 14.5792 11.0371C13.7859 10.7067 12.9943 10.3698 12.2109 10.0169C12.1051 9.96927 11.9895 9.83066 11.9715 9.71835C11.8444 8.94365 11.7425 8.16512 11.6296 7.38769C11.6017 7.19648 11.6553 7.04472 11.7956 6.9094C12.1007 6.61519 12.3873 6.30126 12.7017 6.01855C12.8075 5.92377 12.974 5.85419 13.1154 5.84926C13.6681 5.83009 14.2236 5.8646 14.7753 5.83337C15.1566 5.81201 15.4251 5.91555 15.5828 6.27058C15.8108 6.78393 16.1926 7.06335 16.7689 7.04472C16.7952 7.04363 16.8226 7.05458 16.8489 7.06225C17.5277 7.25182 18.1868 7.22552 18.8332 6.91762C19.0699 6.8053 19.3312 6.74558 19.6188 6.64971C19.2567 6.16703 18.9143 5.7101 18.5642 5.24277C18.2985 5.41918 18.0668 5.58793 17.8202 5.73037C17.7156 5.79119 17.5704 5.84378 17.4592 5.82132C16.6177 5.65038 15.7631 5.53643 14.9517 5.23236C14.8235 5.18414 14.6499 5.17538 14.5222 5.2203C13.7662 5.48767 13.0244 5.53862 12.2914 5.15291C12.2854 5.14963 12.2782 5.14908 12.2717 5.14689C11.9747 5.0417 11.8926 4.85651 12.0301 4.57326C12.2388 4.14373 12.4563 3.71803 12.6672 3.2896C12.7521 3.11702 12.8831 3.03867 13.0765 3.04415C13.3498 3.05127 13.6254 3.02333 13.896 3.05127C14.2845 3.09127 14.5951 2.92745 14.9457 2.71871L14.9468 2.71981ZM19.9388 7.2836C19.3334 7.48631 18.7401 7.69012 18.1429 7.88023C18.018 7.92022 17.8728 7.93557 17.7436 7.91584C17.1163 7.82106 16.4917 7.7082 15.865 7.60848C15.6913 7.58054 15.5604 7.50713 15.4651 7.35701C15.3144 7.12088 15.1621 6.88584 14.9967 6.66066C14.9534 6.60149 14.8591 6.54835 14.7874 6.54725C14.2888 6.53739 13.7898 6.53849 13.2912 6.54561C13.2189 6.54671 13.1301 6.58013 13.0776 6.62889C12.8529 6.83872 12.6349 7.05623 12.4251 7.28031C12.3785 7.33016 12.3478 7.42385 12.3566 7.49124C12.4344 8.08678 12.5275 8.68013 12.6048 9.27566C12.6207 9.40003 12.6628 9.46413 12.7806 9.51344C13.4035 9.77368 14.0209 10.0476 14.6449 10.3057C14.737 10.3435 14.8581 10.3462 14.9567 10.3248C15.2832 10.2553 15.6075 10.1725 15.9296 10.0843C16.128 10.0301 16.2994 10.0515 16.4709 10.1742C16.7372 10.3648 17.0089 10.55 17.2894 10.7188C17.4965 10.8437 17.5732 11.0102 17.5655 11.2453C17.5545 11.5795 17.5567 11.9148 17.566 12.2495C17.5688 12.3542 17.594 12.467 17.64 12.5607C17.9024 13.1004 18.144 13.6537 18.4503 14.1687C18.8551 14.8497 19.0573 15.5598 18.9636 16.3498C18.9587 16.3904 18.9587 16.4325 18.9647 16.4725C18.9707 16.5109 18.9784 16.5575 19.0036 16.5838C19.1592 16.7498 19.3202 16.9108 19.4835 17.0779C21.4223 14.1468 21.5462 10.2646 19.9388 7.2836ZM7.76676 19.6781C7.76676 19.2831 7.77169 18.9078 7.76457 18.5331C7.76128 18.3452 7.82867 18.206 7.98207 18.0981C8.17162 17.9638 8.35515 17.8214 8.54032 17.6811C8.74138 17.5288 9.01914 17.4132 9.12049 17.2105C9.22513 17.0007 9.16651 16.7054 9.16267 16.4473C9.15993 16.2698 9.2191 16.1345 9.34456 16.0112C9.72038 15.6431 10.0896 15.2683 10.4611 14.8958C10.5044 14.8525 10.5701 14.8114 10.5816 14.7593C10.6703 14.3638 10.7476 13.9655 10.8341 13.5431C10.5186 13.5431 10.2397 13.5387 9.96143 13.5447C9.75599 13.5491 9.61464 13.4685 9.51001 13.2883C9.24649 12.8336 8.96874 12.387 8.70467 11.9329C8.64167 11.8249 8.57155 11.786 8.44664 11.7877C7.79087 11.7942 7.13455 11.7849 6.47878 11.7937C6.24321 11.797 6.09529 11.7082 5.99722 11.494C5.86793 11.2108 5.71947 10.9368 5.56662 10.6333C5.13382 11.0661 4.71855 11.4787 4.30876 11.8967C4.27261 11.9334 4.26768 12.0085 4.2622 12.0671C4.22166 12.5048 4.27973 12.919 4.53064 13.2971C4.63199 13.4494 4.68787 13.6313 4.78594 13.7858C4.8336 13.8608 4.92454 13.937 5.00836 13.9561C5.44719 14.0559 5.89094 14.1348 6.33196 14.2263C6.62998 14.2882 6.70942 14.389 6.70997 14.6892C6.71107 15.3521 6.74613 16.0173 6.70175 16.6769C6.64039 17.5924 6.80749 18.4432 7.19755 19.2711C7.32082 19.533 7.47586 19.6458 7.76512 19.6781H7.76676ZM4.21399 10.4026L4.2989 10.3709C4.25617 10.161 4.2863 9.86079 4.15756 9.75834C3.64313 9.34579 3.46399 8.8423 3.55986 8.21224C3.56698 8.16567 3.55986 8.11691 3.56096 8.0687C3.56424 7.73778 3.65738 7.62547 3.9817 7.57726C4.40683 7.5148 4.8347 7.46713 5.25873 7.39646C5.74357 7.31482 6.24595 7.32195 6.67819 7.00582C7.0458 6.73682 7.5164 6.5867 7.82977 6.27222C8.14806 5.95281 8.35734 5.51122 8.56223 5.09703C8.78521 4.64613 9.10351 4.35466 9.6015 4.28179C9.95924 4.22975 10.0305 3.97279 10.082 3.67146C9.842 3.62983 9.61519 3.57504 9.38565 3.55312C8.70687 3.48847 8.0763 3.31261 7.54434 2.85732C7.49448 2.81459 7.37396 2.80528 7.31041 2.83376C5.04178 3.86158 3.384 5.50903 2.33707 7.76956C2.30694 7.83476 2.3031 7.92954 2.32447 7.99857C2.46855 8.45385 2.62085 8.90585 2.77535 9.35785C2.79397 9.41263 2.82794 9.47399 2.87341 9.50522C3.31771 9.80765 3.76695 10.1046 4.21399 10.4026ZM12.8135 4.57272C13.1312 4.73105 13.4298 4.80995 13.7684 4.68832C14.0368 4.59189 14.3206 4.53491 14.6011 4.47793C14.709 4.45602 14.8383 4.45164 14.9386 4.48999C15.7143 4.78639 16.5273 4.93212 17.3365 5.091C17.4001 5.10361 17.4822 5.11182 17.5326 5.08279C17.7063 4.98198 17.8701 4.86364 18.0487 4.74475C17.3754 4.09223 16.6468 3.56901 15.8464 3.14496C15.7998 3.1203 15.7149 3.13729 15.6612 3.16304C15.3352 3.31918 15.0164 3.49176 14.6871 3.64023C14.5545 3.69995 14.4022 3.73392 14.2571 3.74159C13.964 3.75693 13.6692 3.73721 13.3761 3.75255C13.3016 3.75638 13.2014 3.81884 13.1636 3.88349C13.037 4.101 12.933 4.3322 12.8135 4.57272Z" fill="white"/>
</g>
</g>
<defs>
<clipPath id="clip0_540_5408">
<rect width="21" height="22" fill="white" transform="translate(0.76001 0.791504)"/>
</clipPath>
</defs>
</svg>
