<svg width="26" height="26" viewBox="0 0 26 26" fill="none" xmlns="http://www.w3.org/2000/svg">
<mask id="mask0_540_5396" style="mask-type:luminance" maskUnits="userSpaceOnUse" x="0" y="0" width="26" height="26">
<path d="M25.5998 0.608398H0.599792V25.6084H25.5998V0.608398Z" fill="white"/>
</mask>
<g mask="url(#mask0_540_5396)">
<path d="M22.6701 0.608398H3.52948C1.91146 0.608398 0.599792 1.92006 0.599792 3.53809V22.6787C0.599792 24.2967 1.91146 25.6084 3.52948 25.6084H22.6701C24.2881 25.6084 25.5998 24.2967 25.5998 22.6787V3.53809C25.5998 1.92006 24.2881 0.608398 22.6701 0.608398Z" fill="#007B47"/>
<path d="M17.9779 5.49121H20.5623L14.9162 11.9443L21.5584 20.7256H16.3576L12.2842 15.3998L7.62322 20.7256H5.03731L11.0763 13.8232L4.7045 5.49121H10.0373L13.7193 10.3592L17.9779 5.49121ZM17.0709 19.1787H18.5029L9.25916 6.95684H7.72244L17.0709 19.1787Z" fill="white"/>
</g>
</svg>
