<svg width="49" height="50" viewBox="0 0 49 50" fill="none" xmlns="http://www.w3.org/2000/svg">
<rect y="0.128906" width="49" height="49" rx="24.5" fill="#FBECA3"/>
<path d="M26.3616 25.971C27.1573 25.0936 27.6468 23.9337 27.6468 22.6586V21.0116C28.102 21.0116 28.4703 20.6428 28.4703 20.188C28.4703 19.7332 28.102 19.3645 27.6468 19.3645H27.5208L26.9584 15.9916C26.8836 15.5396 26.6206 15.1363 26.237 14.8849C25.8546 14.6336 25.3777 14.5528 24.935 14.6642L23.9349 14.9139C23.1315 15.1158 22.2814 15.115 21.476 14.9139L20.4767 14.6642C20.0324 14.5532 19.5575 14.6336 19.1743 14.8845C18.7911 15.1359 18.5281 15.5388 18.4525 15.9912L17.8904 19.3645H17.7645C17.3097 19.3645 16.9409 19.7332 16.9409 20.188C16.9409 20.6428 17.3097 21.0116 17.7645 21.0116V22.6586C17.7645 23.9337 18.254 25.0936 19.0497 25.971C16.4939 26.1576 14.4703 28.2913 14.4703 30.8939V34.188C14.4703 35.096 15.209 35.8351 16.1174 35.8351H29.2939C30.2018 35.8351 30.9409 35.096 30.9409 34.188V30.8939C30.9409 28.2913 28.9174 26.1576 26.3616 25.971ZM25.9998 29.2468H19.4115V27.5998H25.9998V29.2468ZM25.9998 21.0116V22.6586C25.9998 24.475 24.522 25.9527 22.7056 25.9527C20.8893 25.9527 19.4115 24.475 19.4115 22.6586V21.0116H25.9998ZM16.1174 30.8939C16.1174 29.6799 16.7847 28.6293 17.7645 28.0579V30.0704V34.1887L16.1174 34.1888V30.8939ZM29.2939 34.188L27.6468 34.1881V30.0704V28.0578C28.6267 28.6292 29.2939 29.6799 29.2939 30.8939V34.188Z" fill="#0F4326"/>
<path d="M36.7057 21.0112C36.2505 21.0112 35.8821 21.38 35.8821 21.8348V24.3053C35.8821 24.7593 35.513 25.1289 35.0586 25.1289H34.2351V21.8348C34.2351 21.38 33.8667 21.0112 33.4115 21.0112C32.9563 21.0112 32.588 21.38 32.588 21.8348V25.1289H31.7645C31.3101 25.1289 30.9409 24.7593 30.9409 24.3053V21.8348C30.9409 21.38 30.5726 21.0112 30.1174 21.0112C29.6622 21.0112 29.2939 21.38 29.2939 21.8348V24.3053C29.2939 25.6677 30.4021 26.7759 31.7645 26.7759H32.588V35.0112C32.588 35.4664 32.9563 35.8348 33.4115 35.8348C33.8667 35.8348 34.2351 35.4664 34.2351 35.0112V26.7759H35.0586C36.421 26.7759 37.5292 25.6677 37.5292 24.3053V21.8348C37.5292 21.38 37.1608 21.0112 36.7057 21.0112Z" fill="#0F4326"/>
</svg>
