<svg width="49" height="50" viewBox="0 0 49 50" fill="none" xmlns="http://www.w3.org/2000/svg">
<rect y="0.128906" width="49" height="49" rx="24.5" fill="#FBECA3"/>
<path d="M36.6888 27.8304C36.103 27.484 35.3696 27.428 34.715 27.7183C34.715 27.7183 34.7125 27.7209 34.7023 27.7234C34.6997 27.7259 34.6946 27.7259 34.692 27.7285C34.6946 27.7285 34.692 27.7285 34.6844 27.731L34.6793 27.7336L34.6768 27.7361C34.6666 27.7386 34.6564 27.7437 34.6437 27.7489C34.4043 27.8558 33.4696 28.271 30.2912 29.6768V29.6717C29.5781 28.6606 28.3226 29.4068 26.6213 29.5545C23.9829 28.2022 21.4921 26.8779 18.7595 26.9619V32.3738H19.2128L24.887 34.615C25.814 34.9817 26.8658 34.8875 27.7165 34.3654L36.6938 28.8262C37.0631 28.597 37.0657 28.052 36.6888 27.8304ZM17.7194 26.2955H17.264V25.9548C17.264 25.6885 17.0481 25.4727 16.7818 25.4727H13.5139C13.2476 25.4727 13.0318 25.6885 13.0318 25.9548V33.677C13.0318 33.9433 13.2476 34.1592 13.5139 34.1592H16.7818C17.0481 34.1592 17.264 33.9433 17.264 33.677V33.3364H17.7194C18.013 33.3364 18.251 33.0983 18.251 32.8047V26.8271C18.251 26.5335 18.013 26.2955 17.7194 26.2955ZM15.7892 33.4197C15.4615 33.4197 15.1931 33.1513 15.1931 32.8237C15.1931 32.4961 15.4615 32.2277 15.7892 32.2277C16.1168 32.2277 16.3852 32.4961 16.3852 32.8237C16.3852 33.1513 16.1168 33.4197 15.7892 33.4197Z" fill="#0F4326"/>
<path d="M22.0683 21.7897L23.0867 21.9068C23.2089 22.4364 23.4176 22.9456 23.7079 23.4039L23.0663 24.2084C22.8983 24.4222 22.9186 24.7227 23.107 24.911L23.8097 25.6137C23.9981 25.8021 24.2985 25.8225 24.5124 25.6544L25.3169 25.0129C25.7751 25.3032 26.2843 25.5119 26.8139 25.634L26.931 26.6525C27.0107 27.3574 27.936 27.053 28.4432 27.1209C28.7131 27.1209 28.9372 26.9223 28.9677 26.6525L29.0848 25.634C29.6144 25.5119 30.1236 25.3031 30.5818 25.0128L31.3863 25.6544C31.6002 25.8224 31.9006 25.8021 32.089 25.6137L32.7916 24.911C32.98 24.7227 33.0004 24.4222 32.8324 24.2083L32.1909 23.4038C32.4811 22.9456 32.6898 22.4364 32.812 21.9069L33.8304 21.7897C34.1003 21.7592 34.2988 21.5352 34.2988 21.2653V20.2775C34.2988 20.0076 34.1003 19.7836 33.8304 19.753L32.812 19.6358C32.6898 19.1063 32.4811 18.5971 32.1909 18.1389L32.8324 17.3344C33.0004 17.1205 32.9801 16.8201 32.7916 16.6317L32.089 15.929C31.9006 15.7407 31.6002 15.7203 31.3863 15.8883L30.5818 16.5298C30.1236 16.2396 29.6144 16.0309 29.0848 15.9087L28.9677 14.8903C28.9372 14.6204 28.7131 14.4219 28.4432 14.4219H27.4554C27.1856 14.4219 26.9615 14.6205 26.931 14.8903L26.8139 15.9087C26.2843 16.0309 25.7751 16.2396 25.3169 16.5298L24.5124 15.8883C24.2985 15.7203 23.9981 15.7407 23.8097 15.9291L23.107 16.6317C22.9186 16.8201 22.8983 17.1205 23.0663 17.3344L23.7079 18.1389C23.4176 18.5972 23.2089 19.1063 23.0867 19.6359L22.0683 19.7531C21.7985 19.7836 21.5999 20.0077 21.5999 20.2775V21.2653C21.5999 21.5352 21.7985 21.7592 22.0683 21.7897ZM26.3108 19.138C27.2155 18.2332 28.6789 18.2332 29.5837 19.138C30.4823 20.0366 30.4823 21.506 29.5837 22.4047C28.6789 23.3095 27.2155 23.3095 26.3108 22.4047C25.4061 21.5061 25.4061 20.0366 26.3108 19.138Z" fill="#0F4326"/>
</svg>
